<svg xmlns="http://www.w3.org/2000/svg" width="1600" height="900" viewBox="0 0 1600 900"><rect width="1600" height="900" fill="#f7f9fc"/><text x="800" y="90" text-anchor="middle" font-family="Arial,sans-serif" font-size="44" font-weight="700">fetch() 성공과 오류 처리</text><g font-family="Arial,sans-serif"><rect x="160" y="250" width="320" height="160" rx="24" fill="#fff" stroke="#111" stroke-width="3"/><text x="320" y="335" text-anchor="middle" font-size="32" font-weight="700">fetch()</text><rect x="640" y="160" width="320" height="160" rx="24" fill="#fff" stroke="#111" stroke-width="3"/><text x="800" y="235" text-anchor="middle" font-size="30" font-weight="700">response.ok</text><text x="800" y="280" text-anchor="middle" font-size="24">true</text><rect x="640" y="500" width="320" height="160" rx="24" fill="#fff" stroke="#111" stroke-width="3"/><text x="800" y="575" text-anchor="middle" font-size="30" font-weight="700">response.ok</text><text x="800" y="620" text-anchor="middle" font-size="24">false</text><rect x="1120" y="160" width="320" height="160" rx="24" fill="#fff" stroke="#111" stroke-width="3"/><text x="1280" y="235" text-anchor="middle" font-size="30" font-weight="700">JSON 처리</text><text x="1280" y="280" text-anchor="middle" font-size="24">화면 렌더링</text><rect x="1120" y="500" width="320" height="160" rx="24" fill="#fff" stroke="#111" stroke-width="3"/><text x="1280" y="575" text-anchor="middle" font-size="30" font-weight="700">throw Error</text><text x="1280" y="620" text-anchor="middle" font-size="24">catch에서 처리</text></g><path d="M480 330C550 330 570 250 630 250M480 350C550 350 570 580 630 580M960 240H1110M960 580H1110" stroke="#111" stroke-width="4" fill="none" marker-end="url(#a)"/><defs><marker id="a" markerWidth="10" markerHeight="10" refX="8" refY="3" orient="auto"><path d="M0,0 L0,6 L9,3 z" fill="#111"/></marker></defs><text x="800" y="790" text-anchor="middle" font-family="Arial,sans-serif" font-size="28">HTTP 404/500도 fetch 자체는 정상 완료될 수 있으므로 response.ok를 확인합니다.</text></svg>