<svg xmlns="http://www.w3.org/2000/svg" width="1600" height="900" viewBox="0 0 1600 900"><rect width="1600" height="900" fill="#f8fafc"/><text x="800" y="90" text-anchor="middle" font-family="Arial,sans-serif" font-size="48" font-weight="700" fill="#111827">회원 데이터 처리 흐름</text><g font-family="Arial,sans-serif" text-anchor="middle"><rect x="120" y="300" width="300" height="170" rx="24" fill="#fff" stroke="#334155" stroke-width="3"/><text x="270" y="360" font-size="30" font-weight="700">회원 데이터</text><text x="270" y="405" font-size="21" fill="#475569">name · age · active</text><rect x="510" y="300" width="300" height="170" rx="24" fill="#eef2ff" stroke="#4338ca" stroke-width="3"/><text x="660" y="360" font-size="30" font-weight="700" fill="#312e81">조건 판단</text><text x="660" y="405" font-size="21" fill="#3730a3">if / comparison</text><rect x="900" y="300" width="300" height="170" rx="24" fill="#ecfeff" stroke="#0f766e" stroke-width="3"/><text x="1050" y="360" font-size="30" font-weight="700" fill="#134e4a">반복 처리</text><text x="1050" y="405" font-size="21" fill="#134e4a">for / for...of</text><rect x="1290" y="300" width="220" height="170" rx="24" fill="#fff7ed" stroke="#c2410c" stroke-width="3"/><text x="1400" y="360" font-size="30" font-weight="700" fill="#9a3412">결과</text><text x="1400" y="405" font-size="21" fill="#9a3412">Console</text><g stroke="#64748b" stroke-width="5"><line x1="420" y1="385" x2="490" y2="385"/><line x1="810" y1="385" x2="880" y2="385"/><line x1="1200" y1="385" x2="1270" y2="385"/></g><g fill="#64748b"><polygon points="490,385 470,373 470,397"/><polygon points="880,385 860,373 860,397"/><polygon points="1270,385 1250,373 1250,397"/></g><rect x="250" y="650" width="1100" height="100" rx="20" fill="#fff" stroke="#94a3b8" stroke-width="2"/><text x="800" y="695" font-size="25" font-weight="700">이번 장의 목표</text><text x="800" y="730" font-size="22" fill="#475569">화면을 직접 바꾸기 전, JavaScript가 데이터를 저장·판단·반복하는 원리를 이해합니다.</text></g></svg>