<svg xmlns="http://www.w3.org/2000/svg" width="1600" height="900" viewBox="0 0 1600 900"><rect width="1600" height="900" fill="#f8fafc"/><text x="800" y="92" text-anchor="middle" font-family="Arial,sans-serif" font-size="46" font-weight="700" fill="#111827">GitHub 기반 실습과 과제 제출</text><text x="800" y="140" text-anchor="middle" font-family="Arial,sans-serif" font-size="23" fill="#475569">모든 실습은 개인 Fork 저장소에서 기록하고 URL로 제출합니다</text><g font-family="Arial,sans-serif" text-anchor="middle"><rect x="110" y="280" width="260" height="170" rx="26" fill="#f1f5f9" stroke="#334155" stroke-width="3"/><text x="240" y="338" font-size="28" font-weight="700">Course Repo</text><text x="240" y="385" font-size="20" fill="#475569">공식 Public 저장소</text><rect x="450" y="280" width="260" height="170" rx="26" fill="#eef2ff" stroke="#4338ca" stroke-width="3"/><text x="580" y="338" font-size="28" font-weight="700" fill="#312e81">Fork</text><text x="580" y="385" font-size="20" fill="#475569">개인 GitHub 저장소</text><rect x="790" y="280" width="260" height="170" rx="26" fill="#ecfeff" stroke="#0f766e" stroke-width="3"/><text x="920" y="338" font-size="28" font-weight="700" fill="#134e4a">Clone / Work</text><text x="920" y="385" font-size="20" fill="#475569">VS Code에서 실습</text><rect x="1130" y="280" width="260" height="170" rx="26" fill="#fff7ed" stroke="#c2410c" stroke-width="3"/><text x="1260" y="338" font-size="28" font-weight="700" fill="#9a3412">Commit / Push</text><text x="1260" y="385" font-size="20" fill="#475569">학습 과정 기록</text><g stroke="#64748b" stroke-width="5"><line x1="370" y1="365" x2="430" y2="365"/><line x1="710" y1="365" x2="770" y2="365"/><line x1="1050" y1="365" x2="1110" y2="365"/></g><g fill="#64748b"><polygon points="430,365 410,353 410,377"/><polygon points="770,365 750,353 750,377"/><polygon points="1110,365 1090,353 1090,377"/></g><rect x="505" y="590" width="590" height="150" rx="28" fill="#dcfce7" stroke="#15803d" stroke-width="3"/><text x="800" y="648" font-size="31" font-weight="700" fill="#14532d">GitHub URL 제출</text><text x="800" y="695" font-size="21" fill="#166534">과제 파일 · 소스코드 · 학습 기록을 함께 확인</text><line x1="1260" y1="450" x2="1020" y2="570" stroke="#64748b" stroke-width="5"/><polygon points="1020,570 1030,546 1044,572" fill="#64748b"/></g></svg>